<svg xmlns="http://www.w3.org/2000/svg">

  <!-- телефон  -->
  <symbol id="icon-phone" viewBox="0 0 16 15" fill="none">
    <path fill="currentColor"
      d="m11.162 9.623-.405.4s-.963.95-3.59-1.643C4.542 5.787 5.505 4.838 5.505 4.838l.254-.252c.628-.62.688-1.615.14-2.342L4.778.759c-.68-.9-1.99-1.02-2.768-.252L.614 1.884c-.385.381-.643.873-.611 1.42.08 1.4.718 4.412 4.277 7.926 3.775 3.725 7.317 3.873 8.765 3.74.459-.043.857-.274 1.178-.592l1.262-1.246c.853-.84.613-2.283-.478-2.872l-1.698-.917c-.716-.385-1.587-.272-2.147.28Z" />
  </symbol>


</svg>
