<svg width="126" height="37" viewBox="0 0 126 37" fill="none" xmlns="http://www.w3.org/2000/svg">
<circle cx="16.5" cy="18.5" r="16.5" fill="#212121"/>
<path d="M50.54 18.16C49.0867 18.16 47.8467 17.8667 46.82 17.28C45.8067 16.68 45.0333 15.84 44.5 14.76C43.98 13.68 43.72 12.42 43.72 10.98C43.72 9.51333 43.9867 8.23333 44.52 7.14C45.0667 6.04667 45.8467 5.2 46.86 4.6C47.8733 3.98667 49.0933 3.68 50.52 3.68C51.6 3.68 52.5667 3.86667 53.42 4.24C54.2733 4.6 54.96 5.14 55.48 5.86C56.0133 6.56667 56.3467 7.44 56.48 8.48H53.72C53.5467 7.82667 53.1933 7.31333 52.66 6.94C52.14 6.55333 51.4467 6.36 50.58 6.36C49.62 6.36 48.8533 6.58 48.28 7.02C47.72 7.44667 47.3133 8.00667 47.06 8.7C46.8067 9.38 46.68 10.1 46.68 10.86C46.68 11.6467 46.8133 12.3933 47.08 13.1C47.3467 13.8067 47.7667 14.38 48.34 14.82C48.9267 15.26 49.6933 15.48 50.64 15.48C51.2 15.48 51.7 15.4 52.14 15.24C52.58 15.0667 52.94 14.82 53.22 14.5C53.5133 14.18 53.7133 13.8 53.82 13.36H56.68C56.56 14.3867 56.2133 15.26 55.64 15.98C55.0667 16.7 54.34 17.2467 53.46 17.62C52.58 17.98 51.6067 18.16 50.54 18.16ZM58.7773 18V3.84H61.6373V9.7H67.7573V3.84H70.6373V18H67.7573V12.34H61.6373V18H58.7773ZM73.6406 18V3.84H83.8406V6.5H76.5006V9.7H82.8006V12.26H76.5006V15.36H83.8406V18H73.6406ZM86.0625 18V3.84H91.7625C92.4692 3.84 93.1425 3.91333 93.7825 4.06C94.4358 4.19333 95.0225 4.42667 95.5425 4.76C96.0625 5.09333 96.4692 5.56 96.7625 6.16C97.0692 6.74667 97.2225 7.5 97.2225 8.42C97.2225 9.1 97.1092 9.71333 96.8825 10.26C96.6558 10.8067 96.3225 11.2733 95.8825 11.66C95.4425 12.0467 94.9158 12.3467 94.3025 12.56L97.4425 18H94.2225L91.4625 13.02H88.9225V18H86.0625ZM88.9225 10.48H91.5625C91.9758 10.48 92.3492 10.4467 92.6825 10.38C93.0292 10.3 93.3225 10.18 93.5625 10.02C93.8158 9.86 94.0092 9.64667 94.1425 9.38C94.2892 9.11333 94.3625 8.78667 94.3625 8.4C94.3758 7.90667 94.2692 7.52667 94.0425 7.26C93.8292 6.98 93.5225 6.78667 93.1225 6.68C92.7358 6.56 92.2758 6.5 91.7425 6.5H88.9225V10.48ZM99.8516 18V3.84H105.552C106.258 3.84 106.932 3.91333 107.572 4.06C108.225 4.19333 108.812 4.42667 109.332 4.76C109.852 5.09333 110.258 5.56 110.552 6.16C110.858 6.74667 111.012 7.5 111.012 8.42C111.012 9.1 110.898 9.71333 110.672 10.26C110.445 10.8067 110.112 11.2733 109.672 11.66C109.232 12.0467 108.705 12.3467 108.092 12.56L111.232 18H108.012L105.252 13.02H102.712V18H99.8516ZM102.712 10.48H105.352C105.765 10.48 106.138 10.4467 106.472 10.38C106.818 10.3 107.112 10.18 107.352 10.02C107.605 9.86 107.798 9.64667 107.932 9.38C108.078 9.11333 108.152 8.78667 108.152 8.4C108.165 7.90667 108.058 7.52667 107.832 7.26C107.618 6.98 107.312 6.78667 106.912 6.68C106.525 6.56 106.065 6.5 105.532 6.5H102.712V10.48ZM117.13 18V12.72L111.87 3.84H115.17L118.57 10.06L122.03 3.84H125.27L119.99 12.7V18H117.13Z" fill="#C40A2C"/>
<path d="M43.168 34L46.92 24.102H48.306L52.058 34H50.952L50.14 31.816H45.086L44.274 34H43.168ZM45.422 30.906H49.79L47.606 25.04L45.422 30.906ZM53.1945 34V26.622H56.0365C56.3445 26.622 56.6572 26.6453 56.9745 26.692C57.2918 26.7293 57.5812 26.8133 57.8425 26.944C58.1132 27.0653 58.3278 27.2473 58.4865 27.49C58.6545 27.7233 58.7385 28.0407 58.7385 28.442C58.7385 28.6567 58.7012 28.8667 58.6265 29.072C58.5518 29.2773 58.4352 29.464 58.2765 29.632C58.1272 29.8 57.9172 29.94 57.6465 30.052C58.1785 30.164 58.5658 30.3833 58.8085 30.71C59.0512 31.0273 59.1725 31.41 59.1725 31.858C59.1725 32.2313 59.1025 32.5533 58.9625 32.824C58.8318 33.0947 58.6452 33.3187 58.4025 33.496C58.1692 33.664 57.8938 33.79 57.5765 33.874C57.2685 33.958 56.9418 34 56.5965 34H53.1945ZM54.2025 33.146H56.3305C56.6292 33.146 56.9185 33.118 57.1985 33.062C57.4878 32.9967 57.7212 32.88 57.8985 32.712C58.0852 32.5347 58.1785 32.278 58.1785 31.942C58.1785 31.6247 58.1085 31.382 57.9685 31.214C57.8285 31.0367 57.6465 30.9107 57.4225 30.836C57.1985 30.7613 56.9558 30.7147 56.6945 30.696C56.4332 30.6773 56.1858 30.668 55.9525 30.668H54.2025V33.146ZM54.2025 29.842H55.5465C55.7518 29.842 55.9805 29.828 56.2325 29.8C56.4845 29.772 56.7272 29.716 56.9605 29.632C57.1938 29.548 57.3852 29.4267 57.5345 29.268C57.6838 29.1 57.7585 28.8807 57.7585 28.61C57.7585 28.2367 57.6558 27.9753 57.4505 27.826C57.2545 27.6673 57.0118 27.5693 56.7225 27.532C56.4425 27.4947 56.1718 27.476 55.9105 27.476H54.2025V29.842ZM62.6148 34V27.49H59.9828V26.622H66.2128V27.49H63.5948V34H62.6148ZM70.5102 34.084C69.7356 34.084 69.0869 33.9253 68.5642 33.608C68.0416 33.2813 67.6496 32.8333 67.3882 32.264C67.1362 31.6947 67.0102 31.046 67.0102 30.318C67.0102 29.5807 67.1362 28.932 67.3882 28.372C67.6496 27.8027 68.0416 27.3547 68.5642 27.028C69.0869 26.7013 69.7402 26.538 70.5242 26.538C71.2989 26.538 71.9429 26.7013 72.4562 27.028C72.9789 27.3547 73.3662 27.8027 73.6182 28.372C73.8796 28.932 74.0102 29.5807 74.0102 30.318C74.0102 31.046 73.8796 31.6947 73.6182 32.264C73.3569 32.8333 72.9649 33.2813 72.4422 33.608C71.9289 33.9253 71.2849 34.084 70.5102 34.084ZM70.5102 33.216C71.0889 33.216 71.5649 33.09 71.9382 32.838C72.3116 32.5767 72.5869 32.2267 72.7642 31.788C72.9416 31.3493 73.0302 30.8593 73.0302 30.318C73.0302 29.7767 72.9416 29.2867 72.7642 28.848C72.5869 28.4093 72.3116 28.0593 71.9382 27.798C71.5649 27.5367 71.0889 27.406 70.5102 27.406C69.9316 27.406 69.4556 27.5367 69.0822 27.798C68.7089 28.0593 68.4336 28.4093 68.2562 28.848C68.0882 29.2867 68.0042 29.7767 68.0042 30.318C68.0042 30.8593 68.0882 31.3493 68.2562 31.788C68.4336 32.2267 68.7089 32.5767 69.0822 32.838C69.4556 33.09 69.9316 33.216 70.5102 33.216ZM79.4308 34V26.622H84.4568V27.49H80.4248V34H79.4308ZM88.8579 34.084C88.0832 34.084 87.4345 33.9253 86.9119 33.608C86.3892 33.2813 85.9972 32.8333 85.7359 32.264C85.4839 31.6947 85.3579 31.046 85.3579 30.318C85.3579 29.5807 85.4839 28.932 85.7359 28.372C85.9972 27.8027 86.3892 27.3547 86.9119 27.028C87.4345 26.7013 88.0879 26.538 88.8719 26.538C89.6465 26.538 90.2905 26.7013 90.8039 27.028C91.3265 27.3547 91.7139 27.8027 91.9659 28.372C92.2272 28.932 92.3579 29.5807 92.3579 30.318C92.3579 31.046 92.2272 31.6947 91.9659 32.264C91.7045 32.8333 91.3125 33.2813 90.7899 33.608C90.2765 33.9253 89.6325 34.084 88.8579 34.084ZM88.8579 33.216C89.4365 33.216 89.9125 33.09 90.2859 32.838C90.6592 32.5767 90.9345 32.2267 91.1119 31.788C91.2892 31.3493 91.3779 30.8593 91.3779 30.318C91.3779 29.7767 91.2892 29.2867 91.1119 28.848C90.9345 28.4093 90.6592 28.0593 90.2859 27.798C89.9125 27.5367 89.4365 27.406 88.8579 27.406C88.2792 27.406 87.8032 27.5367 87.4299 27.798C87.0565 28.0593 86.7812 28.4093 86.6039 28.848C86.4359 29.2867 86.3519 29.7767 86.3519 30.318C86.3519 30.8593 86.4359 31.3493 86.6039 31.788C86.7812 32.2267 87.0565 32.5767 87.4299 32.838C87.8032 33.09 88.2792 33.216 88.8579 33.216ZM93.197 36.338V33.146C93.4397 33.1367 93.6403 33.0667 93.799 32.936C93.9577 32.796 94.0837 32.6233 94.177 32.418C94.2797 32.2033 94.359 31.97 94.415 31.718C94.4803 31.4567 94.5317 31.2 94.569 30.948C94.6343 30.5093 94.6763 30.0707 94.695 29.632C94.7137 29.184 94.723 28.8293 94.723 28.568C94.7323 28.2413 94.737 27.9193 94.737 27.602C94.737 27.2753 94.737 26.9487 94.737 26.622H99.903V33.146H100.897V36.338H99.931V34H94.163V36.338H93.197ZM94.835 33.146H98.909V27.476H95.689C95.6797 27.868 95.6703 28.2927 95.661 28.75C95.6517 29.2073 95.6377 29.6413 95.619 30.052C95.6097 30.3693 95.5863 30.7147 95.549 31.088C95.5117 31.4613 95.4417 31.8253 95.339 32.18C95.2363 32.5347 95.0683 32.8567 94.835 33.146ZM104.505 34.084C104.206 34.084 103.903 34.0467 103.595 33.972C103.287 33.888 103.007 33.762 102.755 33.594C102.503 33.4167 102.298 33.1927 102.139 32.922C101.99 32.642 101.915 32.3153 101.915 31.942C101.915 31.522 101.99 31.172 102.139 30.892C102.298 30.612 102.508 30.388 102.769 30.22C103.03 30.052 103.329 29.9353 103.665 29.87C104.001 29.7953 104.356 29.758 104.729 29.758H107.067C107.067 29.3007 107.002 28.8993 106.871 28.554C106.75 28.1993 106.544 27.9193 106.255 27.714C105.975 27.5087 105.597 27.406 105.121 27.406C104.869 27.406 104.626 27.434 104.393 27.49C104.16 27.546 103.95 27.6393 103.763 27.77C103.586 27.8913 103.446 28.0593 103.343 28.274H102.279C102.363 27.9473 102.503 27.672 102.699 27.448C102.904 27.224 103.142 27.0467 103.413 26.916C103.684 26.776 103.968 26.678 104.267 26.622C104.566 26.566 104.85 26.538 105.121 26.538C105.821 26.538 106.386 26.6827 106.815 26.972C107.244 27.252 107.552 27.6533 107.739 28.176C107.935 28.6893 108.033 29.296 108.033 29.996V34H107.179L107.137 32.992C106.932 33.272 106.684 33.4913 106.395 33.65C106.115 33.8087 105.812 33.9207 105.485 33.986C105.168 34.0513 104.841 34.084 104.505 34.084ZM104.603 33.216C105.06 33.216 105.476 33.1413 105.849 32.992C106.222 32.8333 106.516 32.6 106.731 32.292C106.955 31.984 107.067 31.6013 107.067 31.144V30.584H105.415C105.126 30.584 104.832 30.5933 104.533 30.612C104.234 30.6213 103.964 30.668 103.721 30.752C103.478 30.8267 103.282 30.9527 103.133 31.13C102.984 31.298 102.909 31.5407 102.909 31.858C102.909 32.1753 102.988 32.4367 103.147 32.642C103.306 32.838 103.516 32.9827 103.777 33.076C104.038 33.1693 104.314 33.216 104.603 33.216ZM111.011 27.322L110.465 26.93L111.305 25.782L109.947 25.348L110.157 24.718L111.501 25.152V23.738H112.187V25.152L113.517 24.718L113.727 25.348L112.383 25.782L113.223 26.93L112.677 27.322L111.837 26.174L111.011 27.322ZM116.767 27.322L116.221 26.93L117.061 25.782L115.703 25.348L115.913 24.718L117.257 25.152V23.738H117.943V25.152L119.273 24.718L119.483 25.348L118.139 25.782L118.979 26.93L118.433 27.322L117.593 26.174L116.767 27.322Z" fill="#212121"/>
<path d="M16.5 17.5556C17.0194 17.5556 17.4643 17.3708 17.8345 17.0012C18.2047 16.6316 18.3895 16.1867 18.3889 15.6667C18.3889 15.1472 18.2041 14.7027 17.8345 14.3331C17.4649 13.9635 17.0201 13.7784 16.5 13.7778C15.9806 13.7778 15.536 13.9629 15.1664 14.3331C14.7969 14.7033 14.6117 15.1479 14.6111 15.6667C14.6111 16.1861 14.7962 16.6309 15.1664 17.0012C15.5367 17.3714 15.9812 17.5562 16.5 17.5556ZM11.7778 27V25.1111H15.5556V22.1833C14.7843 22.0102 14.0958 21.6837 13.4901 21.2039C12.8844 20.7242 12.4395 20.1219 12.1556 19.3972C10.975 19.2556 9.98743 18.7402 9.19283 17.8512C8.39824 16.9621 8.00063 15.9191 8 14.7222V13.7778C8 13.2583 8.18511 12.8138 8.55533 12.4442C8.92556 12.0746 9.37007 11.8895 9.88889 11.8889H11.7778V10H21.2222V11.8889H23.1111C23.6306 11.8889 24.0754 12.074 24.4456 12.4442C24.8158 12.8144 25.0006 13.259 25 13.7778V14.7222C25 15.9185 24.6024 16.9615 23.8072 17.8512C23.0119 18.7408 22.0244 19.2562 20.8444 19.3972C20.5611 20.1213 20.1166 20.7235 19.5109 21.2039C18.9052 21.6844 18.2164 22.0108 17.4444 22.1833V25.1111H21.2222V27H11.7778ZM11.7778 17.3667V13.7778H9.88889V14.7222C9.88889 15.3204 10.062 15.8596 10.4083 16.3401C10.7546 16.8205 11.2111 17.1627 11.7778 17.3667ZM21.2222 17.3667C21.7889 17.162 22.2454 16.8195 22.5917 16.3391C22.938 15.8587 23.1111 15.3197 23.1111 14.7222V13.7778H21.2222V17.3667Z" fill="white"/>
</svg>
